<svg id="Layer_1" data-name="Layer 1" xmlns="http://www.w3.org/2000/svg" xmlns:xlink="http://www.w3.org/1999/xlink" viewBox="0 0 516 344"><defs><linearGradient id="linear-gradient" x1="-0.46" y1="96.8" x2="516" y2="96.8" gradientTransform="matrix(1, 0, 0, -1, 0, 231)" gradientUnits="userSpaceOnUse"><stop offset="0" stop-color="#add1ff"/><stop offset="0.15" stop-color="#a7c4fc"/><stop offset="0.44" stop-color="#95a1f4"/><stop offset="0.82" stop-color="#7a68e7"/><stop offset="1" stop-color="#6c4ce0"/></linearGradient><clipPath id="clip-path"><rect x="102.59" y="113.87" width="336.69" height="219.78" fill="none"/></clipPath><clipPath id="clip-path-2"><rect x="220.61" y="127.85" width="72.56" height="115.89" fill="#fff"/></clipPath><clipPath id="clip-path-3"><rect x="337.96" y="127.85" width="72.56" height="115.89" fill="#fff"/></clipPath></defs><title>Artboard 1</title><path d="M-.46,0S42.57,37.35,79,90s66.32,129.28,141,111c77-18.85,104.72,34.21,154,61,48,26.09,142-36,142-36V0Z" fill="url(#linear-gradient)"/><path d="M101,0s13,86,92,100c47.63,8.44,61.78,56.4,115,66,61,11,94-6,135,10,38,14.83,73,25,73,25V-1Z" fill="#6c4ce0"/><ellipse cx="261" cy="333.06" rx="204" ry="9.94" fill="#d8e1ea"/><g clip-path="url(#clip-path)"><rect x="219.63" y="124.58" width="78.12" height="121.62" fill="#cca789"/><rect x="217.88" y="124.58" width="78.12" height="121.62" fill="#b7835c"/><rect x="220.61" y="127.85" width="72.56" height="115.89" fill="#fff"/><g clip-path="url(#clip-path-2)"><path d="M296.63,246.21H219.39s9.55-55.73,26.08-21.52c7.29,15.09,27.27-3.11,24.89-4.36-38.78-20.38-5-42.13-11.24-51.18-1.26-1.83-11.53-8.93-13.46,7.36s-18.92-38.71,19.09-29.43,10.16-21,10.16-21h21.72Z" fill="#16c0db"/><path d="M219.08,241.06l.4-115.56H265s12.26,11.91,5.6,14.36S230.69,129.7,224.21,157c-2,8.58-1.58,11.36,0,11.15a3.24,3.24,0,0,1,3.49,4.43C224,181.34,220,236.08,219.08,241.06Z" fill="#215faa"/></g><path d="M260.13,118.42h-2.89v-2.58a1.45,1.45,0,0,1,1.44-1.45h0a1.44,1.44,0,0,1,1.44,1.45Z" fill="#233862"/><path d="M242.61,116.41h35.61a0,0,0,0,1,0,0v4a0,0,0,0,1,0,0H239.16a0,0,0,0,1,0,0v-.58A3.45,3.45,0,0,1,242.61,116.41Z" fill="#4a75cb"/><path d="M279.7,120.44h-2.89v-2.58a1.44,1.44,0,0,1,1.44-1.44h0a1.45,1.45,0,0,1,1.44,1.44Z" fill="#afcdfb"/><rect x="336.98" y="124.58" width="78.12" height="121.62" fill="#cca789"/><rect x="335.23" y="124.58" width="78.12" height="121.62" fill="#b7835c"/><rect x="337.96" y="127.85" width="72.56" height="115.89" fill="#fff"/><g clip-path="url(#clip-path-3)"><path d="M336.74,126.06H414s-16.81,61.48-29.43,50.44-19.27-26-21.54-24.56,5,42.13,11.24,51.18c1.26,1.83,11.53,8.93,13.46-7.36s18.92,38.71-19.09,29.43-10.16,21-10.16,21H336.74Z" fill="#16c0db"/><path d="M412.93,176v70.24H367.39s-12.26-11.91-5.6-14.36,40.35,10.25,46.42-17.16a17.79,17.79,0,0,0-1.69-12.94,17.43,17.43,0,0,1,4-22A6.41,6.41,0,0,0,412.93,176Z" fill="#215faa"/></g><path d="M382.91,210.25s-15.76,5-22.33-28.11S347.71,220,382.91,210.25Z" fill="#215faa"/><path d="M374.24,161.14s13.75,22.07,20.41,9.34S393,181,374.24,161.14Z" fill="#215faa"/><path d="M377.49,118.42H374.6v-2.58A1.45,1.45,0,0,1,376,114.4h0a1.44,1.44,0,0,1,1.44,1.45Z" fill="#233862"/><path d="M360,116.41h35.61a0,0,0,0,1,0,0v4a0,0,0,0,1,0,0H356.51a0,0,0,0,1,0,0v-.58A3.45,3.45,0,0,1,360,116.41Z" fill="#4a75cb"/><path d="M397.05,120.44h-2.89v-2.58a1.45,1.45,0,0,1,1.44-1.44h0a1.45,1.45,0,0,1,1.45,1.44Z" fill="#afcdfb"/><path d="M407,281.61s3.82-3.13,1.27-6a8.56,8.56,0,0,0-3.72-1.91s1.76,4.65.87,4.93-1.59-5.32-1.59-5.32-4.85-1.36-6.58-.88c0,0,3.61,4.21,2.68,4.25s-4.93-3.84-4.93-3.84-4.69-.36-4.94,2.49,1.18,4,1.88,4,5.06-.78,5-.19-2.8,2-4.53,1.8c0,0,2.6,4.15,4.94,3.5s2.81-2.25,4.26-2.62,2.6-.17,1.93.36-3.2.7-4.21,1.92-1.86,2,.43,2.08,6.2-.92,6.69-2.76Z" fill="#1c468a"/><path d="M392.28,275.8s12.57,1.74,14.69,5.8a9.17,9.17,0,0,0,1.86,3.93l.15.85s-1.88-2.71-2.63-3C406.36,283.4,408.48,279.24,392.28,275.8Z" fill="#1c468a"/><path d="M408.84,285.54a8,8,0,0,1,1.88,6l-.49,0s-.2-3.81-1.5-5.52S408.84,285.54,408.84,285.54Z" fill="#1c468a"/><path d="M418.87,278.93s-4.53-3.72-1.5-7.13a10.16,10.16,0,0,1,4.42-2.26s-2.09,5.52-1,5.84,1.89-6.32,1.89-6.32,5.76-1.61,7.81-1c0,0-4.28,5-3.19,5s5.8-4.93,5.8-4.93,5.62,0,5.92,3.34-1.4,4.74-2.24,4.8-6-.93-6-.23,3.32,2.39,5.37,2.13c0,0-3.09,4.92-5.87,4.15s-3.34-2.67-5.06-3.12-3.08-.2-2.29.42,3.8.84,5,2.29,2.21,2.39-.51,2.46-7.36-1.1-7.94-3.28Z" fill="#4a75cb"/><path d="M436.31,272.06s-14.92,2.05-17.44,6.87a10.88,10.88,0,0,1-2.22,4.66l-.18,1s2.09-3.16,3-3.49C419.45,281.11,417.08,276.12,436.31,272.06Z" fill="#1c468a"/><path d="M416.65,283.6a9.45,9.45,0,0,0-2.24,7.16l.59-.05s.25-4.53,1.78-6.55S416.65,283.6,416.65,283.6Z" fill="#1c468a"/><path d="M411.55,273.61s7.3-2.54,5.1-8.13c0,0-1.93-3.54-4.44-4.81,0,0,.08,7.78-1.37,7.7s.54-8.67.54-8.67-6.39-4.61-9.19-4.83c0,0,3,8.12,1.64,7.69s-4.93-8.73-4.93-8.73-6.93-2.61-8.84,1.44-.43,6.5.59,7,7.85,1.58,7.51,2.43-5.19,1.45-7.62.2c0,0,1.59,7.5,5.37,7.81s5.34-1.79,7.68-1.56,3.91,1.15,2.64,1.57-5.08-.7-7.22.55-3.82,2-.49,3.28,9.67,2,11.38-.39A14.57,14.57,0,0,0,411.55,273.61Z" fill="#4a75cb"/><path d="M393.1,257.18s17.52,9.33,18.45,16.44a14.35,14.35,0,0,0,.62,6.78l-.24,1.33s-1.14-4.86-2.1-5.67C409.84,276,415,270.95,393.1,257.18Z" fill="#1c468a"/><path d="M412.17,280.39a12.46,12.46,0,0,1-.49,9.87l-.7-.33s1.76-5.71.78-8.91S412.17,280.39,412.17,280.39Z" fill="#1c468a"/><path d="M381.42,335.16h32.77l-4.89-20.75a19.47,19.47,0,0,0-19-15H347.76v8.76h24.1Z" fill="#afcdfb"/><path d="M335.61,299.48v-.07H319.3q-.84,0-1.68.07H295.1a19.47,19.47,0,0,0-19,15l-4.88,20.68h33.19l4.42-18.74a10.78,10.78,0,0,1,9.19-8.25h19.61v-8.68Z" fill="#1c468a"/><path d="M276.54,334.71l4.31-18.29a10.67,10.67,0,0,1,10.43-8.25h71a10.67,10.67,0,0,1,10.43,8.25l4.31,18.29h9l-4.79-20.3a19.47,19.47,0,0,0-19-15h-71a19.47,19.47,0,0,0-19,15l-4.79,20.3Z" fill="#4a75cb"/><path d="M216.77,334.44h32.77l-4.89-20.75a19.47,19.47,0,0,0-19-15H183.11v8.76h24.1Z" fill="#afcdfb"/><path d="M171,298.76v-.07H154.66q-.85,0-1.68.07H130.45a19.47,19.47,0,0,0-19,15l-4.88,20.68h33.19l4.42-18.74a10.78,10.78,0,0,1,9.19-8.25H173v-8.68Z" fill="#1c468a"/><path d="M111.89,334l4.31-18.29a10.67,10.67,0,0,1,10.43-8.25h71a10.67,10.67,0,0,1,10.43,8.25L212.42,334h9l-4.79-20.3a19.47,19.47,0,0,0-19-15h-71a19.47,19.47,0,0,0-19,15L102.9,334Z" fill="#4a75cb"/><path d="M229.45,188.38s.85-4.1,3-5,3.42-4.7,4.27-3.68-.26,7.86-1.88,8.72a8.82,8.82,0,0,0-2.39,1.74Z" fill="#ed985f"/><path d="M192.76,172s13.62,23.76,18.57,28.13l18.12-13.51a6.61,6.61,0,0,1,3.78,3.45s-11,22.42-21.84,23.37-26-26.87-26-26.87Z" fill="#a8302d"/><path d="M150.6,319.07s-3.15,2.92-2.54,5,3.46,3.46,3.84,6,1.92,3.92,3.3,3.92h6.59s1-1.78-1.44-2.32-3.39-3.52-3.23-6.28a49.51,49.51,0,0,0-.23-6.45l-5.22-1.23Z" fill="#233862"/><path d="M189.86,333.86a1.88,1.88,0,0,0,.47.13h17.39c-.13-.61-.67-1.86-2.8-2.2-2.75-.45-7.53-2-8.59-5.57,0-.11-.06-.23-.09-.35-.84-3.77-7,1.15-7,1.15s0,.15,0,.41C189.06,328.81,188.69,333.28,189.86,333.86Z" fill="#233862"/><path d="M204.19,233.18s-.93,11.65-2,25.64c-1.49,19-3.28,42.37-3.46,46.8-.31,7.68-1.54,20-1.54,20s-2.92,2.92-8.76,1.69a201.08,201.08,0,0,1-6.69-36.11l-.07-.92c-1.38-18.9-3.53-58.69-3.53-58.69Z" fill="#2b478b"/><path d="M204.19,233.18s-.93,11.65-2,25.64l-20.45,32.35-.07-.92c-1.38-18.9-3.53-58.69-3.53-58.69Z" fill="#233862"/><path d="M199.92,234.56s-16.82,42.18-27.89,62-14.52,25.35-14.52,25.35-6.34-2.54-6.91-4.26c0,0,4.23-38.26,11.64-47.59,4.19-5.27,9.1-21.09,9.33-26.62s1.5-16.48,1.5-16.48Z" fill="#2b478b"/><path d="M191.3,169.46a49.41,49.41,0,0,0,.77-7l-8.54-6.88c.32,9.46-5.74,14-5.74,14s11.38,5.6,18,3.53A15.75,15.75,0,0,0,191.3,169.46Z" fill="#ed985f"/><path d="M194.08,162.27s-10.86,1.8-11.88-5-3.11-11.11,3.78-12.55,8.63.95,9.52,3.13S196.88,161.63,194.08,162.27Z" fill="#ed985f"/><path d="M204.91,234.15a1.06,1.06,0,0,1-.69.26c-2.47,0-9.67,1.34-15.76.71a45.38,45.38,0,0,1-14.56-4.2c-.65-.29-2.14-1.09-2.11-1.81s.1-1.94.2-3.39a181.49,181.49,0,0,0,.36-23.7c-.11-1.86-.16-3.71-.17-5.53-.05-13.55,2.64-25.47,8-29.5.46-.33,3.29,1.05,5.89,2.34a10.77,10.77,0,0,0,7.08.86l2.27,2a22.69,22.69,0,0,1,7.11,11.36c1.12,4.51,1.78,12.64,2.14,21.07.16,3.82.3,7.67.33,11.33v.13c0,.36,0,.76,0,1.12C205.21,226.58,205.08,234,204.91,234.15Z" fill="#c94c43"/><path d="M172,225.72a181.49,181.49,0,0,0,.36-23.7c-.11-1.86-.16-3.71-.17-5.53,2.25-5.46,4.09-9.41,4.09-9.41h5.67S186.1,215.47,172,225.72Z" fill="#a8302d"/><path d="M161,227.48l-1.08,1.85a4.31,4.31,0,0,1-2.89,6.13s-2.15.54-2.34-.95.13-.91-.18-3,.51-4,2.06-4.48l1.23-1.17Z" fill="#ed985f"/><path d="M158.11,228a18.6,18.6,0,0,0,4.25.24s6.06-18.72,6.84-20.43,18-22,18-22l-7.17-18S161.41,199,159.51,203.37c-3.13,7.22-4.21,23.42-4.21,23.42A7.8,7.8,0,0,0,158.11,228Z" fill="#c94c43"/><path d="M183.26,161.8s0-5.34-.13-6.88-.18-3.54,1.07-3.17,1.31,1.37,1.82.79.52-3,4.24-3.21,5.22,1.12,6.95.36,1.82-3.37,1.82-3.37a3,3,0,0,1-1.23,1.23s2.88-3.94-.45-6.64-6.74-.93-8.67-.82c-4.25.26-7,.51-8.39,3.31-.69,1.38-1.08,5.19-.53,9S181.87,160.43,183.26,161.8Z" fill="#233862"/><rect x="228.58" y="179.33" width="10.7" height="3.45" rx="0.35" ry="0.35" transform="translate(-31.89 310.83) rotate(-63.76)" fill="#2b478b"/><rect x="230.33" y="180.84" width="10.7" height="2.14" rx="0.27" ry="0.27" transform="translate(-31.69 312.88) rotate(-63.76)" fill="#233862"/><path d="M192.07,162.43a31.5,31.5,0,0,1-.34,4.09l-5.51-4.73A15.78,15.78,0,0,0,192.07,162.43Z" fill="#db8449"/><polygon points="421.62 334.8 403.6 334.8 398.47 286.8 426.75 286.8 421.62 334.8" fill="#81acea"/><polygon points="420.92 289.16 420.17 331.55 424.31 289.16 420.92 289.16" fill="#afcdfb"/><path d="M427.18,288.73H398a1,1,0,0,1-1-1h0a1,1,0,0,1,1-1h29.14a1,1,0,0,1,1,1h0A1,1,0,0,1,427.18,288.73Z" fill="#4a75cb"/><path d="M293.18,155.47v47.29s-41.28,25.92-44,19.5,30.59-14,33.63-25.35-32.48,14.53-24.15,0C264,187.58,293.18,175.33,293.18,155.47Z" fill="#215faa"/><path d="M250,211.18s-7.47-8.14-2.8-22.23S230.06,195.08,250,211.18Z" fill="#215faa"/></g></svg>